<svg id="lh_icon_mushroom" xmlns="http://www.w3.org/2000/svg" width="22.588" height="25" viewBox="0 0 22.588 25">
  <path id="合体_38" data-name="合体 38" d="M17671.934,9167.115a4.657,4.657,0,0,1-2.848-3.138,4.748,4.748,0,0,1-.043-2.253,6.757,6.757,0,0,1,.65-1.588l.141-.276a19.323,19.323,0,0,0,.938-2.322c.143-.422.256-.866.363-1.28a.477.477,0,0,1,.414-.362c.424-.047.836-.082,1.264-.107.152-.008.311-.013.465-.017.061,0,.123,0,.184,0h.094c.051,0,.1,0,.148-.009.086,0,.172,0,.262,0a26.48,26.48,0,0,1,4.426.414.479.479,0,0,1,.4.451,24.912,24.912,0,0,1-.2,4.464c-.09.675-.211,1.354-.346,2.016l-.039.2a6.671,6.671,0,0,1-.354,1.275,4.723,4.723,0,0,1-4.314,2.834A4.557,4.557,0,0,1,17671.934,9167.115Zm1.365-10.384c-.148,0-.291.009-.428.018-.3.017-.594.042-.887.067-.09.338-.189.688-.3,1.033a20.465,20.465,0,0,1-.986,2.445l-.141.273s0,0,0,.008a5.991,5.991,0,0,0-.568,1.361,3.718,3.718,0,0,0,.035,1.789,3.632,3.632,0,0,0,3.521,2.714,3.749,3.749,0,0,0,3.43-2.241,6.123,6.123,0,0,0,.295-1.1l.043-.2c.131-.637.242-1.294.332-1.946a23.95,23.95,0,0,0,.205-3.906,25.121,25.121,0,0,0-3.879-.337c-.068,0-.141,0-.219,0-.059,0-.113.009-.174.009h-.086C17673.422,9156.731,17673.357,9156.731,17673.3,9156.731Zm6.58-.525h0c-.436-.063-.861-.136-1.236-.2a27.558,27.558,0,0,0-4.266-.473h-.084a31.761,31.761,0,0,0-3.2.213c-.617.06-1.254.119-1.881.162-.352.021-.621.034-.871.034a4.379,4.379,0,0,1-2.646-.7,4.634,4.634,0,0,1-1.678-3.418c-.2-2.928,2.271-5.4,3.338-6.334a12.087,12.087,0,0,1,7.754-3.093h.047a12.365,12.365,0,0,1,8.783,3.827,8.311,8.311,0,0,1,2.484,7.478,3.3,3.3,0,0,1-2.207,2.476,5.942,5.942,0,0,1-1.861.265A16.6,16.6,0,0,1,17679.879,9156.206Z" transform="translate(-17664 -9142.405)" fill="#fbb6ce"/>
</svg>
