<svg id="lh_icon_noodle" xmlns="http://www.w3.org/2000/svg" width="29.006" height="18.139" viewBox="0 0 29.006 18.139">
  <path id="合体_37" data-name="合体 37" d="M17678.066,9020.045a4.845,4.845,0,0,1-.844-.062,2.676,2.676,0,0,1-.818-.249,2.309,2.309,0,0,1-.533-.373,2.071,2.071,0,0,1-.492-.724,2.382,2.382,0,0,1-.16-.893v0a3.764,3.764,0,0,1,.041-.528c.012-.106.025-.209.039-.307a.783.783,0,0,0,.018-.115l.045-.342a14.588,14.588,0,0,1-7.844-11.356l-.018-.124.041-.556a2.647,2.647,0,0,1,.852-1.785,2.683,2.683,0,0,1,1.83-.72h23.564a2.685,2.685,0,0,1,2.68,2.5l.039.556-.018.129a14.457,14.457,0,0,1-2.949,7.292,14.617,14.617,0,0,1-5.156,4.192l.041.293c.018.111.035.223.049.338a4.732,4.732,0,0,1,.039.528v0a2.712,2.712,0,0,1-.107.732,2.038,2.038,0,0,1-.492.835,2.08,2.08,0,0,1-.523.387,2.841,2.841,0,0,1-.729.258,4.756,4.756,0,0,1-1,.089Zm-6.893-8.386a13.731,13.731,0,0,0,4.951,4.051l.324.155-.143,1.066a1.05,1.05,0,0,1-.018.124c-.014.089-.025.187-.039.275-.018.164-.027.288-.031.413a1.466,1.466,0,0,0,.094.523,1.025,1.025,0,0,0,.244.369,1.271,1.271,0,0,0,.293.2,1.811,1.811,0,0,0,.537.159,4.24,4.24,0,0,0,.68.049h7.6a3.947,3.947,0,0,0,.791-.066,1.839,1.839,0,0,0,.463-.16,1.254,1.254,0,0,0,.279-.208,1.063,1.063,0,0,0,.254-.422,1.571,1.571,0,0,0,.057-.444,3.156,3.156,0,0,0-.031-.409c-.008-.106-.025-.213-.039-.311l-.018-.1-.125-.937.338-.155a13.6,13.6,0,0,0,7.162-7.8h-2.232v-2.67h-3.682v1.875h2.336v-.44h-1.764V9006h2.563v2.03h-3.939v-3.469h5.285v2.674h1.689c.043-.146.082-.293.119-.44h-1.209v-2.233h1.516l-.006-.08a1.693,1.693,0,0,0-1.674-1.576l-.08,0-23.5,0a1.686,1.686,0,0,0-1.674,1.571l-.006.085h3.8v2.674h3.691v-1.875h-2.291v.64h1.719v.795h-2.514v-2.233h3.885v3.469h-5.289v-2.67h-2.98q.047.322.105.64h2.328v2.03h-1.777A13.508,13.508,0,0,0,17671.174,9011.659Zm-.982-4.423v-.44h-1.354c.037.147.076.294.119.44Zm24.568-1.235h.584q.062-.318.105-.64h-.689Zm-12.705,2.03v-2.67h-3.682v1.875h2.336v-.44h-1.76V9006h2.559v2.03h-3.936v-3.469h5.281v2.674h3.7v-1.875h-2.3v.64h1.719v.795h-2.514v-2.233h3.891v3.469Z" transform="translate(-17667.5 -9001.906)" fill="#fbb6ce"/>
</svg>
