<svg id="lh_icon_fattymeat" xmlns="http://www.w3.org/2000/svg" width="30" height="19.772" viewBox="0 0 30 19.772">
  <path id="合体_28" data-name="合体 28" d="M17640.377,9258.588l-12.73-.356a8.648,8.648,0,0,1-5.812-2.2,7.417,7.417,0,0,1-2.281-4.686h-.055v-3.965h.035c.008-.115.016-.231.029-.343a8.806,8.806,0,0,1,3.3-5.824,11.67,11.67,0,0,1,7.395-2.4c.32,0,.646.013.971.033a9.73,9.73,0,0,1,5.543,2.012,10.888,10.888,0,0,0,6.35,2.168c3.457.215,6,2.255,6.334,5.023h.043v3.965h-.086c-.018.095-.035.189-.051.279a7.674,7.674,0,0,1-3.15,4.487,9.689,9.689,0,0,1-5.586,1.8Zm-16.91-16.622a7.824,7.824,0,0,0-2.943,5.182,7.011,7.011,0,0,0-.049.729l-.008.2v2.409l.018.352a6.434,6.434,0,0,0,2.01,4.492,7.723,7.723,0,0,0,5.178,1.937l12.73.356c.078,0,.15,0,.223,0a8.7,8.7,0,0,0,5.023-1.628,6.7,6.7,0,0,0,2.766-3.905,3.981,3.981,0,0,0,.088-.6l.027-.266v-2.508l0-.162c-.082-2.49-2.328-4.367-5.465-4.561a11.8,11.8,0,0,1-6.828-2.332,8.848,8.848,0,0,0-5.062-1.848c-.3-.021-.613-.03-.912-.03A10.726,10.726,0,0,0,17623.467,9241.966Zm16.953,12.752-12.73-.356a6.952,6.952,0,0,1-5.26-2.233,6.266,6.266,0,0,1-1.379-4.916c.482-4.063,4.27-6.9,9.207-6.9.287,0,.582.009.879.025a8.3,8.3,0,0,1,4.8,1.762,12.271,12.271,0,0,0,7.088,2.422,5.652,5.652,0,0,1,4.242,1.984,3.667,3.667,0,0,1,.627,3.095,6.182,6.182,0,0,1-2.617,3.639,8.2,8.2,0,0,1-4.652,1.479C17640.561,9254.722,17640.488,9254.722,17640.42,9254.718Zm-18.41-7.39a5.329,5.329,0,0,0,1.152,4.17,6.034,6.034,0,0,0,4.553,1.9l12.73.355h.18a7.22,7.22,0,0,0,4.1-1.3,5.231,5.231,0,0,0,2.229-3.056,2.752,2.752,0,0,0-.453-2.3,4.725,4.725,0,0,0-3.533-1.6,13.1,13.1,0,0,1-7.568-2.585,7.3,7.3,0,0,0-4.32-1.595c-.273-.017-.555-.03-.818-.03C17625.824,9241.279,17622.434,9243.766,17622.01,9247.328Zm18.184,5.537-3.375-.1,5.008-6.636c.236.021.477.043.723.056a3.908,3.908,0,0,1,2.924,1.29,1.988,1.988,0,0,1,.326,1.7c-.437,2-2.932,3.687-5.443,3.687Zm-9.271-.261,5.928-7.861a11.887,11.887,0,0,0,3.016,1.084l-5.189,6.88Zm-2.891-.082a5.652,5.652,0,0,1-3.215-.973l7.014-9.292a6.389,6.389,0,0,1,3.18,1.358c.113.073.219.146.336.222l-6.568,8.706Zm-4.855-5.118c.342-2.875,2.975-4.945,6.508-5.2l-6.041,8A4.72,4.72,0,0,1,17623.176,9247.4Z" transform="translate(-17619.498 -9238.815)" fill="#fbb6ce"/>
</svg>
