<svg xmlns="http://www.w3.org/2000/svg" width="28.009" height="29.849" viewBox="0 0 28.009 29.849">
  <g id="lh_icon_alcohol" transform="translate(0.5 0.5)">
    <path id="パス_337" data-name="パス 337" d="M18.178,21.89c-.06-1.374.239-18.277.239-18.994S18,2,17.282,2H3.007c-.717,0-1.135.179-1.135.9s.3,17.62.239,18.994-.06,5.614-.06,6.032-.358,1.314.6,1.971,4.868.955,7.5.955,6.54-.3,7.5-.955.6-1.554.6-1.971S18.238,23.264,18.178,21.89Z" transform="translate(-1.872 -2)" fill="none" stroke="#fbb6ce" stroke-width="1"/>
    <path id="パス_338" data-name="パス 338" d="M445.6,97.5c0,.418.264-2.863,2.354-3.819s4.48.238,5.256,2.747.6,6.392-1.613,8.66-4.719,2.628-5.2,2.449-.847-.478-.847-.179v4.778c0,.418.13.717.549.418s1.075-1.552,2.031-1.911,7.824-3.7,8.063-10.214-3.763-9.437-6.212-9.437c-2.091,0-3.723.776-4.022,2.33A38.59,38.59,0,0,1,445.6,97.5Z" transform="translate(-429.203 -87.765)" fill="none" stroke="#fbb6ce" stroke-width="1"/>
    <path id="前面オブジェクトで型抜き_8" data-name="前面オブジェクトで型抜き 8" d="M6.966,18.754c-3.228,0-6.264-.394-6.822-.747-.155-.107-.171-.119-.114-.548a3.219,3.219,0,0,0,.037-.436c0-.771,0-4.687.058-5.981C.161,10.23.083,4.715.012,0H13.921c-.066,4.342-.151,10.211-.115,11.042.056,1.289.059,5.209.059,5.981a3.148,3.148,0,0,0,.037.432v0c.056.431.04.442-.114.55C13.229,18.361,10.192,18.754,6.966,18.754ZM1.409.468a.315.315,0,0,0-.24.111c-.254.285-.308,1.1-.161,2.435,0,.1.156,9.859.145,10.584a.605.605,0,0,0,.153.453.385.385,0,0,0,.273.117c.2,0,.427-.174.433-.557.011-.706-.028-10-.078-11.034-.009-.209-.012-.433-.013-.583C1.914,1.214,1.907.477,1.413.468Zm4.453,12.5a.329.329,0,1,0,.328.33A.33.33,0,0,0,5.862,12.972ZM4.538,9.887a.267.267,0,1,0,.266.268A.268.268,0,0,0,4.538,9.887ZM8.689,9.07a.329.329,0,1,0,.328.328A.329.329,0,0,0,8.689,9.07ZM4.945,5.337a.438.438,0,1,0,.439.438A.438.438,0,0,0,4.945,5.337ZM8.758,2.995a.391.391,0,1,0,.39.39A.39.39,0,0,0,8.758,2.995Z" transform="translate(1.306 7.705)" fill="#fbb6ce"/>
  </g>
</svg>
