<svg id="lh_icon_cigarettes" xmlns="http://www.w3.org/2000/svg" width="30" height="21.893" viewBox="0 0 30 21.893">
  <path id="合体_33" data-name="合体 33" d="M17626.488,9070.4a.493.493,0,0,1-.492-.492v-5.686a.489.489,0,0,1,.492-.488h21.467a1.045,1.045,0,0,1,1.045,1.041v4.579a1.049,1.049,0,0,1-1.045,1.046Zm.488-.984h20.979a.061.061,0,0,0,.063-.062v-4.579a.064.064,0,0,0-.062-.062h-20.979Zm-4.357.984a.888.888,0,0,1-.883-.889v-4.893a.884.884,0,0,1,.883-.885h2.293a.488.488,0,0,1,.488.488v5.686a.492.492,0,0,1-.488.492Zm-.883-9.11h-.08l-.164-.013a1.249,1.249,0,0,1-.131-.018l-.166-.035a.675.675,0,0,1-.127-.034l-.143-.049a2.885,2.885,0,0,1-.664-.344l-.186-.147-.066-.053-.117-.117a1.087,1.087,0,0,1-.113-.118l-.17-.205-.166-.244c-.018-.025-.033-.061-.051-.091l-.045-.083c-.031-.053-.055-.1-.082-.161l-.082-.222a3.244,3.244,0,0,1-.184-1.029,3.393,3.393,0,0,1,.174-1.027l.088-.223c.031-.065.055-.117.086-.17l.045-.083c.018-.034.033-.065.051-.1l.148-.223.049-.06.131-.158c.043-.048.082-.086.117-.122l.113-.113a.5.5,0,0,1,.074-.057l.172-.139a.36.36,0,0,0-.037-.035l-.135-.1-.066-.052-.117-.118a1.6,1.6,0,0,1-.113-.117l-.17-.205-.1-.152-.049-.074c-.031-.048-.047-.078-.064-.109l-.045-.083c-.027-.052-.055-.108-.082-.161l-.082-.222a3.261,3.261,0,0,1-.184-1.032,3.405,3.405,0,0,1,.174-1.024l.088-.222c.031-.065.055-.118.086-.17l.045-.088c.018-.029.033-.061.051-.091l.148-.222.049-.062.131-.162c.043-.048.082-.082.121-.121l.109-.109c.029-.025.051-.043.074-.062l.168-.134a3.04,3.04,0,0,1,.682-.357l.139-.048c.043-.014.088-.022.131-.035l.17-.035a.979.979,0,0,1,.123-.018l.152-.009a.923.923,0,0,1,.1,0,.357.357,0,0,1,.064,0c.063,0,.131.009.188.014a1.048,1.048,0,0,1,.205.048.7.7,0,0,1,.152.065.411.411,0,0,1,.248.37.434.434,0,0,1-.205.362,1.032,1.032,0,0,1-.135.077l-.053.027a.145.145,0,0,0-.053.025c-.055.026-.107.053-.164.078l-.187.092-.156.092-.027.014-.1.065a2.19,2.19,0,0,0-.332.282l-.1.1-.078.109a.1.1,0,0,0-.035.043l-.086.136-.082.156-.068.153a1.217,1.217,0,0,1-.041.134,2.219,2.219,0,0,0-.076.524,2.263,2.263,0,0,0,.08.526,1.011,1.011,0,0,1,.043.135s.053.108.053.108l-.234.141.1-.039.145-.062.078.144.086.14c.008.014.113.147.113.147l.113.122a2.686,2.686,0,0,0,.314.262l.1.065a.339.339,0,0,1,.031.021l.129.074.2.1c.07.026.123.053.17.074a.2.2,0,0,0,.061.031l.057.025a.9.9,0,0,1,.127.079.428.428,0,0,1,.209.357.437.437,0,0,1-.209.36.71.71,0,0,1-.131.079l-.053.026a.325.325,0,0,0-.053.025c-.055.031-.113.053-.164.079l-.184.091-.191.109-.092.061a2.964,2.964,0,0,0-.332.284l-.1.1-.082.108a.139.139,0,0,0-.035.044l-.086.135-.082.156s-.059.136-.068.153a1.226,1.226,0,0,1-.041.135,2.248,2.248,0,0,0-.076.522,2.279,2.279,0,0,0,.08.527,1.265,1.265,0,0,1,.043.136s.053.112.053.112l-.234.136.1-.035.145-.064.078.147.086.136c.008.013.113.147.113.147l.027.026.086.1a2.345,2.345,0,0,0,.314.262l.1.068a.083.083,0,0,1,.031.019l.129.074c.045.021.2.1.2.1a1.184,1.184,0,0,1,.17.078l.061.03.057.026a.753.753,0,0,1,.131.074.447.447,0,0,1,.205.361.417.417,0,0,1-.248.375.716.716,0,0,1-.152.061.948.948,0,0,1-.213.048,1.7,1.7,0,0,1-.193.018Zm3.643-1.913a1.88,1.88,0,0,1-.193-.017.937.937,0,0,1-.205-.043,1.54,1.54,0,0,1-.152-.065.418.418,0,0,1-.248-.375.44.44,0,0,1,.211-.362.769.769,0,0,1,.131-.074l.051-.025a.332.332,0,0,0,.053-.026c.057-.03.113-.053.164-.078l.189-.092.182-.109.1-.065a2.678,2.678,0,0,0,.336-.278l.092-.1.082-.108a.173.173,0,0,0,.035-.049l.088-.13.082-.158s.057-.134.066-.151a.948.948,0,0,1,.043-.14,2.17,2.17,0,0,0,.074-.519,2.136,2.136,0,0,0-.08-.527.885.885,0,0,1-.041-.136c-.006,0-.055-.113-.055-.113l.232-.134-.1.034-.143.065-.078-.147-.088-.14c-.008-.009-.117-.148-.117-.148l-.021-.021-.088-.1a2.27,2.27,0,0,0-.314-.258l-.1-.07-.16-.095c-.039-.022-.2-.1-.2-.1a1.547,1.547,0,0,1-.168-.077l-.062-.031-.057-.025a.622.622,0,0,1-.131-.079.414.414,0,0,1,.006-.719.793.793,0,0,1,.125-.078l.057-.022.053-.025a1.392,1.392,0,0,1,.164-.079s.172-.087.189-.092c0,0,.172-.1.182-.108l.1-.065a2.494,2.494,0,0,0,.336-.278l.092-.109.082-.1a.249.249,0,0,0,.035-.048l.088-.131.082-.156s.057-.136.066-.157a1.133,1.133,0,0,1,.043-.135,2.171,2.171,0,0,0,.074-.52,2.136,2.136,0,0,0-.08-.526,1.185,1.185,0,0,1-.041-.135c-.006-.009-.055-.113-.055-.113l.232-.14-.1.039-.143.061-.078-.144-.088-.14c-.008-.009-.107-.135-.107-.135l-.119-.135a2.781,2.781,0,0,0-.314-.262l-.1-.065-.164-.1c-.039-.022-.2-.1-.2-.1-.064-.031-.121-.053-.168-.079a.611.611,0,0,0-.062-.031l-.057-.025c-.049-.026-.092-.052-.125-.074a.437.437,0,0,1-.211-.361.423.423,0,0,1,.248-.374,1.06,1.06,0,0,1,.152-.065,1.135,1.135,0,0,1,.215-.048,1.782,1.782,0,0,1,.191-.014.2.2,0,0,1,.053,0,.485.485,0,0,1,.074,0l.174.014c.039,0,.082.009.127.017l.166.035c.041.009.086.018.125.03l.143.052a2.682,2.682,0,0,1,.664.346l.188.147.064.052.121.118c.035.034.076.074.109.113l.17.205.105.156.061.091c.016.027.035.057.053.088l.043.087a1.549,1.549,0,0,1,.078.162l.086.213a3.308,3.308,0,0,1,.186,1.036,3.265,3.265,0,0,1-.176,1.024l-.086.223c-.031.069-.061.122-.088.174l-.043.083c-.018.03-.037.065-.053.091l-.148.223-.049.061-.135.162a.868.868,0,0,1-.117.121l-.113.109a.716.716,0,0,1-.068.062s-.172.13-.176.139.018.014.035.031l.141.108.064.053.117.117a1.128,1.128,0,0,1,.113.113l.17.209.105.153.061.091c.016.026.035.057.053.092l.043.082a1.46,1.46,0,0,1,.078.162l.092.218a3.45,3.45,0,0,1,.18,1.032,3.406,3.406,0,0,1-.176,1.028l-.086.218c-.031.07-.061.122-.088.174l-.043.087c-.018.031-.037.062-.053.088l-.148.222-.049.065-.135.157a1.331,1.331,0,0,1-.117.126l-.1.1c-.039.034-.061.052-.082.068l-.172.136a2.706,2.706,0,0,1-.68.357l-.139.048a.748.748,0,0,1-.129.035l-.172.034a1.037,1.037,0,0,1-.121.019l-.158.012c-.037,0-.064,0-.09,0A.246.246,0,0,1,17625.379,9059.373Z" transform="translate(-17619 -9048.504)" fill="#fbb6ce"/>
</svg>
