<svg id="lh_icon_fish" xmlns="http://www.w3.org/2000/svg" width="30" height="14.048" viewBox="0 0 30 14.048">
  <path id="パス_241" data-name="パス 241" d="M9.078,13.548h-.03a12.419,12.419,0,0,1-6.8-2.829A16.619,16.619,0,0,1-.4,8.148a.454.454,0,0,1,0-.565L.443,6.524-.4,5.465A.454.454,0,0,1-.4,4.9,16.617,16.617,0,0,1,2.248,2.33,12.417,12.417,0,0,1,9.048-.5a.486.486,0,0,1,.474.28A16.419,16.419,0,0,1,10.6,5.249h.843V2.567a1.1,1.1,0,0,1,2.2,0V5.249h.992V2.04a1.1,1.1,0,0,1,2.2,0v3.21h.992V2.567a1.1,1.1,0,0,1,2.2,0V5.249h.992V3.095a1.1,1.1,0,0,1,2.2,0V5.249h.827c.123-.141.278-.339.449-.558.88-1.127,2.352-3.012,4.443-3.379a.5.5,0,0,1,.412.114.458.458,0,0,1,.156.385l-.421,4.711.421,4.711a.458.458,0,0,1-.156.385.5.5,0,0,1-.412.114c-2.091-.367-3.563-2.253-4.443-3.38-.17-.218-.325-.416-.448-.557H23.21V9.953a1.1,1.1,0,0,1-2.2,0V7.8H20.02v2.682a1.1,1.1,0,0,1-2.2,0V7.8h-.992v3.21a1.1,1.1,0,0,1-2.2,0V7.8h-.992v2.682a1.1,1.1,0,0,1-2.2,0V7.8H10.6a16.42,16.42,0,0,1-1.076,5.469A.485.485,0,0,1,9.078,13.548ZM.6,7.86a16.836,16.836,0,0,0,2.278,2.148,11.854,11.854,0,0,0,5.876,2.578,17.751,17.751,0,0,0,.9-5.27.476.476,0,0,1,.484-.452h1.791a.476.476,0,0,1,.484.467v3.149a.132.132,0,0,0,.263,0V7.332a.476.476,0,0,1,.484-.467h1.96a.476.476,0,0,1,.484.467v3.677a.132.132,0,0,0,.263,0V7.332a.476.476,0,0,1,.484-.467h1.96a.476.476,0,0,1,.484.467v3.149a.132.132,0,0,0,.263,0V7.332a.476.476,0,0,1,.484-.467H21.5a.476.476,0,0,1,.484.467V9.953a.132.132,0,0,0,.263,0V7.332a.476.476,0,0,1,.484-.467H23.98a.376.376,0,0,0,.1-.017.5.5,0,0,1,.462.1,6.762,6.762,0,0,1,.721.842,8.3,8.3,0,0,0,3.214,2.849l-.364-4.078a.449.449,0,0,1,0-.08l.364-4.078A8.3,8.3,0,0,0,25.26,5.255a6.747,6.747,0,0,1-.722.843.5.5,0,0,1-.461.1.363.363,0,0,0-.1-.017H22.726a.476.476,0,0,1-.484-.467V3.095a.132.132,0,0,0-.263,0V5.716a.476.476,0,0,1-.484.467h-1.96a.476.476,0,0,1-.484-.467V2.567a.132.132,0,0,0-.263,0V5.716a.476.476,0,0,1-.484.467h-1.96a.476.476,0,0,1-.484-.467V2.04a.132.132,0,0,0-.263,0V5.716a.476.476,0,0,1-.484.467h-1.96a.476.476,0,0,1-.484-.467V2.567a.132.132,0,0,0-.263,0V5.716a.476.476,0,0,1-.484.467H10.133a.476.476,0,0,1-.484-.452,17.75,17.75,0,0,0-.9-5.27C4.638.88,1.458,4.2.6,5.188L1.437,6.24a.454.454,0,0,1,0,.569ZM5.635,6.251a1.418,1.418,0,0,1-1.441-1.39,1.442,1.442,0,0,1,2.882,0A1.418,1.418,0,0,1,5.635,6.251Zm0-1.847a.457.457,0,1,0,.473.457A.466.466,0,0,0,5.635,4.4Z" transform="translate(0.5 0.5)" fill="#fbb6ce"/>
</svg>
