<svg id="lh_icon_fruit" xmlns="http://www.w3.org/2000/svg" width="22.326" height="25" viewBox="0 0 22.326 25">
  <path id="合体_24" data-name="合体 24" d="M17679.309,9196.221a7.014,7.014,0,0,1-3.227-1.2,11.092,11.092,0,0,1-2.506-2.694,13.829,13.829,0,0,1-2.574-7.729,7.959,7.959,0,0,1,3-6.8,6.631,6.631,0,0,1,3.84-1.153,10.605,10.605,0,0,1,2.115.231c.465.1.926.271,1.395.351a19.531,19.531,0,0,1,.221-3.343c.082-.576.082-1.707.926-1.67,1.02.039.609,1.27.523,1.865a17.492,17.492,0,0,0-.2,3.18,9.9,9.9,0,0,1,5.961-.237,6.593,6.593,0,0,1,3.887,3.868.76.76,0,0,1,.027.072s0-.01,0-.016c1.641,4.277-.086,9.341-2.965,12.653a7.381,7.381,0,0,1-4.9,2.644,4.895,4.895,0,0,1-1.635-.083c-.314-.068-.775-.326-1.1-.27-.434.072-.84.254-1.273.326a4.806,4.806,0,0,1-.768.062A5.167,5.167,0,0,1,17679.309,9196.221Zm-4.184-14.538a1.859,1.859,0,1,0,1.857-1.861A1.859,1.859,0,0,0,17675.125,9181.683Zm17.541-.8c.008.018.016.037.023.057Zm-.016-.042c.006.015.01.028.016.042C17692.66,9180.871,17692.656,9180.858,17692.65,9180.844Zm-.023-.058.023.058C17692.645,9180.825,17692.635,9180.806,17692.627,9180.786Zm0-.009a.015.015,0,0,1,0,.009A.015.015,0,0,0,17692.625,9180.777Zm-.031-.082a.841.841,0,0,0,.031.082A.628.628,0,0,1,17692.594,9180.7Zm0,0s0,0,0,0S17692.592,9180.693,17692.592,9180.691Zm-.01-.021c0,.007.006.015.01.021S17692.586,9180.677,17692.582,9180.67Zm0-.008a.015.015,0,0,0,0,.008A.015.015,0,0,1,17692.578,9180.662Zm-.014-.034c0,.01.01.021.014.034C17692.574,9180.649,17692.568,9180.639,17692.564,9180.628Zm-.008-.021a.07.07,0,0,1,.008.021A.07.07,0,0,0,17692.557,9180.606Zm0,0v0Zm-.006-.015a.026.026,0,0,0,.006.015A.026.026,0,0,1,17692.551,9180.589Zm-.008-.017.008.017C17692.547,9180.582,17692.545,9180.576,17692.543,9180.572Zm0,0v0Zm0,0h0Zm0,0v0Zm0,0Zm-15.457-6.124a3.818,3.818,0,0,1-1.09-2.553l-.023-.254.232-.115a2.915,2.915,0,0,1,1.24-.245,3.705,3.705,0,0,1,2.643,1.028,2.942,2.942,0,0,1,.793,2.2l-.012.235-.217.093a4.064,4.064,0,0,1-1.58.331A2.885,2.885,0,0,1,17677.086,9174.441Zm-.316-2.342a2.936,2.936,0,0,0,.816,1.793,2.169,2.169,0,0,0,1.486.529,3.3,3.3,0,0,0,1.061-.182,2.124,2.124,0,0,0-.576-1.422,2.979,2.979,0,0,0-2.111-.8A2.691,2.691,0,0,0,17676.77,9172.1Z" transform="translate(-17671 -9171.274)" fill="#fbb6ce"/>
</svg>
