<svg id="lh_icon_exercise" xmlns="http://www.w3.org/2000/svg" width="25.928" height="28.298" viewBox="0 0 25.928 28.298">
  <path id="合体_41" data-name="合体 41" d="M17640.57,9025.8a1.82,1.82,0,0,1-.836-.2l-.014-.007-4.543-2.484a6.73,6.73,0,0,1-1.559-1.173l-2.922-2.938-5.768-.185.369,4.029a1.849,1.849,0,0,1-1.562,2l-.062.008a1.788,1.788,0,0,1-.27.02,1.854,1.854,0,0,1-1.816-1.5l-1.24-6.4a2.578,2.578,0,0,1,2.525-3.075h.018l4.051.016-.824-3.316-2.812,1.063a2.416,2.416,0,0,1-.846.153,2.383,2.383,0,0,1-1.219-.335l-3.959-2.367a1.568,1.568,0,0,1-.734-.989,1.605,1.605,0,0,1,.184-1.212l.045-.073a1.586,1.586,0,0,1,1.363-.765,1.611,1.611,0,0,1,.783.205l3.068,1.717,5-3.022a3.6,3.6,0,0,1,1.582-.689c.094-.017.193-.028.324-.039.01,0,.129-.012.287-.012.072,0,.145,0,.211.007l7.168.4a2.28,2.28,0,0,1,1.434.58l2.877,2.552a1.554,1.554,0,0,1,.135,2.162l-.043.044a1.538,1.538,0,0,1-1.969.256l-3.07-1.986-3.02.28,1.035,5.848,3.377,5.3,4.229,2.7a1.817,1.817,0,0,1,.643,2.45l-.025.047A1.837,1.837,0,0,1,17640.57,9025.8Zm-.377-1.09a.834.834,0,0,0,1.1-.336l.025-.046a.82.82,0,0,0-.293-1.107l-.012-.007-4.422-2.826-.059-.093-3.541-5.563-.018-.1-1.244-7.016,4.449-.411.145.094,3.213,2.079a.536.536,0,0,0,.7-.1l.02-.022.016-.014a.548.548,0,0,0-.061-.741l-2.877-2.552a1.278,1.278,0,0,0-.809-.327h-.01l-7.182-.4c-.045,0-.094,0-.146,0-.113,0-.2.008-.2.008-.1.009-.176.017-.238.027a2.631,2.631,0,0,0-1.162.511l-.023.02-.027.016-5.525,3.338-.254-.142-3.322-1.858a.6.6,0,0,0-.8.21l-.045.073a.6.6,0,0,0-.066.451.586.586,0,0,0,.273.367l3.961,2.368a1.389,1.389,0,0,0,.707.193,1.415,1.415,0,0,0,.492-.089l3.865-1.462.135.546,1.271,5.11-.643,0-4.707-.019a1.579,1.579,0,0,0-1.545,1.884l1.24,6.4a.854.854,0,0,0,.836.688.9.9,0,0,0,.127-.009l.059-.008a.85.85,0,0,0,.713-.916l-.471-5.157.564.018,6.73.216.141.141,3.063,3.08a5.741,5.741,0,0,0,1.328,1Zm-12.57-20.32a3.444,3.444,0,1,1,3.443-3.444A3.448,3.448,0,0,1,17627.623,9004.388Zm0-5.888a2.444,2.444,0,1,0,2.443,2.443A2.446,2.446,0,0,0,17627.623,8998.5Z" transform="translate(-17616.5 -8997.5)" fill="#fbb6ce"/>
</svg>
