<svg id="lh_icon_highcalorie" xmlns="http://www.w3.org/2000/svg" width="25" height="22.071" viewBox="0 0 25 22.071">
  <path id="合体_39" data-name="合体 39" d="M17618.639,9231.083a4.556,4.556,0,0,1-1.869-.761,1.882,1.882,0,0,1-.771-1.543v-1.261a1.163,1.163,0,0,1,1.162-1.161h22.678a1.163,1.163,0,0,1,1.16,1.161v1.261c0,1.625-2.221,2.11-3.891,2.336a72.455,72.455,0,0,1-8.607.325c-.693,0-1.375,0-2.037.007-.635,0-1.234.007-1.828.007A31.67,31.67,0,0,1,17618.639,9231.083Zm-1.832-3.564v1.261c0,.468.207,1.132,2,1.515a31,31,0,0,0,5.824.354c.588,0,1.189,0,1.824-.008.66,0,1.348-.007,2.041-.007a72.069,72.069,0,0,0,8.5-.314c2.117-.285,3.191-.807,3.191-1.539v-1.261a.352.352,0,0,0-.354-.354h-22.678A.354.354,0,0,0,17616.807,9227.519Zm1.625-2.476a1.361,1.361,0,0,1-1.361-1.359v-1.2a1.359,1.359,0,0,1,1.361-1.357h9.85l2.889,2.89a1.9,1.9,0,0,0,2.68,0l2.889-2.89h1.828a1.36,1.36,0,0,1,1.361,1.357v1.2a1.363,1.363,0,0,1-1.361,1.359Zm-1.271-4.964a1.163,1.163,0,0,1-1.162-1.16v-.979a7.464,7.464,0,0,1,3.725-6.156,17.241,17.241,0,0,1,17.551,0,7.459,7.459,0,0,1,3.725,6.156v.979a1.162,1.162,0,0,1-1.16,1.16Zm-.354-2.14v.979a.357.357,0,0,0,.354.356h22.678a.354.354,0,0,0,.354-.356v-.979c0-4.346-5.135-7.749-11.691-7.749S17616.807,9213.594,17616.807,9217.939Zm10.49-2.807a1.2,1.2,0,1,1,1.2,1.2A1.2,1.2,0,0,1,17627.3,9215.133Zm.8,0a.4.4,0,1,0,.4-.4A.4.4,0,0,0,17628.1,9215.133Zm5.205-.8a1.207,1.207,0,1,1,1.205,1.207A1.207,1.207,0,0,1,17633.307,9214.329Zm.807,0a.4.4,0,1,0,.4-.4A.4.4,0,0,0,17634.113,9214.329Zm-12.832,0a1.205,1.205,0,1,1,1.2,1.207A1.2,1.2,0,0,1,17621.281,9214.329Zm.8,0a.4.4,0,0,0,.8,0,.4.4,0,0,0-.8,0Zm7.615-2.4a1.205,1.205,0,1,1,1.207,1.2A1.208,1.208,0,0,1,17629.7,9211.926Zm.807,0a.4.4,0,1,0,.4-.4A.4.4,0,0,0,17630.506,9211.926Zm-5.617,0a1.205,1.205,0,1,1,1.2,1.2A1.206,1.206,0,0,1,17624.889,9211.926Zm.807,0a.4.4,0,1,0,.4-.4A.4.4,0,0,0,17625.7,9211.926Z" transform="translate(-17615.998 -9209.383)" fill="#fbb6ce"/>
</svg>
