<svg id="lh_icon_salt" xmlns="http://www.w3.org/2000/svg" width="15.141" height="25" viewBox="0 0 15.141 25">
  <path id="合体_36" data-name="合体 36" d="M17661,9061.908v-.478c0-4.1,1.1-7.637,2.27-11.387a67.176,67.176,0,0,0,1.834-6.706h-.537l-.615-2.479h-1.338v-3h.6l-.24-.951h11.188l-1.588,6.43h-.539a67.7,67.7,0,0,0,1.836,6.706c1.164,3.75,2.27,7.286,2.27,11.387v.478Zm3.188-11.578c-1.1,3.528-2.139,6.864-2.219,10.619h13.2c-.08-3.755-1.121-7.091-2.217-10.619a65.654,65.654,0,0,1-1.92-7.095h-4.93A66.111,66.111,0,0,1,17664.188,9050.33Zm-1.217,9.33.082-.55c.033-.21.064-.444.094-.7a29.745,29.745,0,0,1,2.027-7.875l.117-.3h6.691l.117.307a31.623,31.623,0,0,1,1.875,7.236c.066.46.131.9.211,1.3l.111.572Z" transform="translate(-17661 -9036.908)" fill="#fbb6ce"/>
</svg>
