<svg id="lh_icon_sweet" xmlns="http://www.w3.org/2000/svg" width="25.58" height="26.535" viewBox="0 0 25.58 26.535">
  <path id="合体_44" data-name="合体 44" d="M2852.791-6820.465a1.778,1.778,0,0,1-1.064-.352,1.794,1.794,0,0,1-.727-1.44v-1.211l4.809-1.478a1.5,1.5,0,0,1-.51-.256l-.4-.306,1.318-1.7L2851-6825.6v-3.556l25.58-7.863v3.557l-4.3,1.321a1.645,1.645,0,0,1,.754,1.669,1.388,1.388,0,0,1-.071.25l3.615-1.112v2.313a1.784,1.784,0,0,1-1.265,1.713l-22,6.762a1.822,1.822,0,0,1-.526.079Zm-.791-2.265v.472a.792.792,0,0,0,.321.636.776.776,0,0,0,.471.156.766.766,0,0,0,.232-.036l22-6.76a.789.789,0,0,0,.559-.758v-.958Zm6.458-3.643a1.5,1.5,0,0,1-.359.722l2.379-.731a1.452,1.452,0,0,1-.319-.187l-.4-.308,1.449-1.862-3.181.978A1.561,1.561,0,0,1,2858.458-6826.373Zm-6.458-2.043v1.464l23.58-7.248v-1.464Zm11.319.677a1.454,1.454,0,0,1-.232.555l2.09-.643a1.442,1.442,0,0,1-.161-.108l-.4-.308,1.578-2.028-3.4,1.046A1.584,1.584,0,0,1,2863.319-6827.739Zm4.858-1.368a1.414,1.414,0,0,1-.139.4l1.866-.574-.028-.021-.4-.306,1.708-2.2-3.646,1.121A1.616,1.616,0,0,1,2868.177-6829.107Zm-17.021-1.411a1.1,1.1,0,0,1,.175-1.351l9-8.82.182.9c.39,1.947,1.847,2.894,4.451,2.894a5.043,5.043,0,0,0,3.454-1.021,3.934,3.934,0,0,0,1.107-3.053v-.748l6.343,2.419a1.1,1.1,0,0,1,.71,1.067,1.105,1.105,0,0,1-.779,1.018l-23.37,7.183a1.082,1.082,0,0,1-.323.048A1.1,1.1,0,0,1,2851.156-6830.518Zm.875-.636a.1.1,0,0,0-.016.125.1.1,0,0,0,.088.05.148.148,0,0,0,.029,0l23.37-7.185a.1.1,0,0,0,.072-.093.1.1,0,0,0-.065-.1l-5.018-1.914c-.258,2.871-2.155,4.382-5.53,4.382a6.514,6.514,0,0,1-3.65-.911,4.023,4.023,0,0,1-1.54-1.942Zm10.063-6.584a3.542,3.542,0,0,1-1.479-3.234,6.947,6.947,0,0,1,1.457-4.195,4.049,4.049,0,0,1,2.889-1.833,4.052,4.052,0,0,1,2.89,1.833,6.947,6.947,0,0,1,1.457,4.195,3.539,3.539,0,0,1-1.481,3.234,5.382,5.382,0,0,1-2.866.632A5.386,5.386,0,0,1,2862.094-6837.738Z" transform="translate(-2851 6847)" fill="#fbb6ce"/>
</svg>
