<svg id="lh_icon_dentifrice" xmlns="http://www.w3.org/2000/svg" width="25" height="30.146" viewBox="0 0 25 30.146">
  <path id="合体_32" data-name="合体 32" d="M17619,9095.584l2.943-2.941,0,0,5.145-5.149,1.471,1.475h0l2.205,2.2,1.469,1.47h0l1.469,1.472-5.145,5.145L17644,9114.7l-2.943,2.942Zm1.475,0,20.582,20.588,1.469-1.474-16.172-16.173-2.205-2.2-2.205-2.206Zm7.352,2.941,4.41-4.41-.736-.737-4.41,4.411Zm-1.473-1.474,2.207-2.2,2.205-2.207-.734-.73-4.41,4.411Zm-1.469-1.468,4.41-4.411-.732-.736-4.412,4.413Zm-1.471-1.471,4.412-4.408-.736-.736-4.41,4.409Z" transform="translate(-17618.998 -9087.495)" fill="#fbb6ce"/>
</svg>
