<svg id="lh_icon_bread" xmlns="http://www.w3.org/2000/svg" width="28.663" height="25" viewBox="0 0 28.663 25">
  <path id="パス_219" data-name="パス 219" d="M27.949,39.84c.1.126.189.239-.015-.022-.182-.229-.108-.134-.016-.017a7.922,7.922,0,0,0-3.185-1.892l-4.446-1.981-4.446-1.982a11.481,11.481,0,0,0-3.713-1.185A15.217,15.217,0,0,0,4.4,34.313,7.866,7.866,0,0,0,.132,38.758,2.1,2.1,0,0,0,.7,41.125c.448.25,1.035-.01,1.12.689a3.141,3.141,0,0,1,0,.43c-.025,1.037-.112,9.07-.043,9.771.063.642.367.874.944,1.063.434.142,10.938,4.743,11.461,4.636l10.408-2.127c.444-.09,1.012-.116,1.3-.5a1.755,1.755,0,0,0,.235-1.111q.079-3.384.158-6.768l.027-1.149c0-.092,0-.185.006-.277,0-.133.526-.322.652-.408A4.012,4.012,0,0,0,27.949,39.84Zm-2.3-1.466.076.025Q25.57,38.354,25.649,38.374Zm1.42,4.691c-.026.061-.018.04,0,.009a2.046,2.046,0,0,1-1.3,1.066,1.1,1.1,0,0,0-.845,1.152q-.009.368-.017.734-.049,2.068-.1,4.137-.042,1.791-.084,3.582c-.007.274-.029.224-.32.283l-1.965.4-7.6,1.553q.082-3.545.166-7.09c.011-.506.327-2.565-.621-2.415a1.26,1.26,0,0,1-1.413-.528,1.916,1.916,0,0,1,.268-1.705,7.071,7.071,0,0,1,2.711-2.434,14.48,14.48,0,0,1,7.016-1.8,6.783,6.783,0,0,1,2.691.5c1,.446,1.885,1.427,1.424,2.547C27.088,43.016,27.1,42.983,27.069,43.065Z" transform="translate(0 -32.715)" fill="#fbb6ce"/>
</svg>
