<svg id="lh_icon_soy" xmlns="http://www.w3.org/2000/svg" width="22.306" height="25" viewBox="0 0 22.306 25">
  <path id="大豆製品" d="M41.824-.5a7.747,7.747,0,0,1,5.615,2.422,6.977,6.977,0,0,1,1.941,5.2c-.114,2.124-.9,5.594-3.993,10.069-3.246,4.7-5.99,6.073-7.773,6.7a8.366,8.366,0,0,1-2.974.613,7.6,7.6,0,0,1-4.619-13.6c.076-.073.159-.151.251-.229,3.4-2.842,3.838-4.264,4.221-5.516A7.576,7.576,0,0,1,41.824-.5ZM34.641,23.538a7.22,7.22,0,0,0,2.643-.553l.01,0c3.46-1.215,5.828-4.2,7.308-6.343,2.965-4.29,3.715-7.573,3.823-9.573a6.022,6.022,0,0,0-1.68-4.482A6.788,6.788,0,0,0,41.824.462,6.618,6.618,0,0,0,35.418,5.41l-.006.02a8.393,8.393,0,0,1-1.155,2.5,17.989,17.989,0,0,1-3.371,3.482c-.077.064-.151.135-.22.2l-.019.018-.021.016a6.635,6.635,0,0,0,4.015,11.891ZM35.986,6.874a1.3,1.3,0,0,1,1.059.55,1.333,1.333,0,0,1,.149,1.222,6.737,6.737,0,0,1-2.319,3.2,1.344,1.344,0,0,1-.745.226,1.407,1.407,0,0,1-1.288-.844.982.982,0,0,1,.272-1.108A12.929,12.929,0,0,0,34.8,7.689,3.37,3.37,0,0,1,35,7.37,1.245,1.245,0,0,1,35.986,6.874Zm-1.857,4.239a.383.383,0,0,0,.218-.067A5.8,5.8,0,0,0,36.29,8.329a.369.369,0,0,0-.026-.348.351.351,0,0,0-.279-.145.282.282,0,0,0-.225.115c-.021.033-.077.13-.131.223a12.5,12.5,0,0,1-1.873,2.661.113.113,0,0,0-.029.034.236.236,0,0,0,.067.1A.487.487,0,0,0,34.129,11.113Z" transform="translate(-27.084 0.5)" fill="#fbb6ce"/>
</svg>
