<svg id="lh_icon_juice" xmlns="http://www.w3.org/2000/svg" width="20" height="29.609" viewBox="0 0 20 29.609">
  <path id="合体_40" data-name="合体 40" d="M17616.406,9208.563l-.047-.453-2.359-24.82,1-.1,2.313,24.375h13.172l2.516-24.375,1,.1-2.625,25.273Zm2.734-3.141-1.266-16.453h.281l2.563-.016,1.8.016.484-.008-.687-6.352-7.984-2.7.328-.953,8.594,2.922.047.32.7,6.766,6.031-.008v.016h0l-.125,1.7-1.094,14.75Zm6.344-4.562c0,.57.328,1.047.766,1.047.406,0,.75-.477.75-1.047s-.344-1.062-.75-1.062C17625.813,9199.8,17625.484,9200.281,17625.484,9200.859Zm-4.062-3.8c0,.781.453,1.414,1.016,1.414s1.016-.633,1.016-1.414-.453-1.414-1.016-1.414S17621.422,9196.273,17621.422,9197.055Zm3.172-4.742c0,1.031.625,1.875,1.344,1.875.75,0,1.359-.844,1.359-1.875s-.609-1.867-1.359-1.867C17625.219,9190.445,17624.594,9191.281,17624.594,9192.313Z" transform="translate(-17614 -9178.953)" fill="#fbb6ce"/>
</svg>
