<svg xmlns="http://www.w3.org/2000/svg" width="49.624" height="48.488" viewBox="0 0 49.624 48.488">
  <g id="tap_clover_active" transform="translate(1.626 0.002)">
    <g id="合体_21" data-name="合体 21" transform="translate(-17806.961 -8394)" fill="none">
      <path d="M17821.4,8432.44c0-5.278,9.559-13.492,9.559-13.492s9.559,8.214,9.559,13.492a9.559,9.559,0,0,1-19.117,0Zm10.5-14.442s8.219-9.558,13.5-9.558a9.558,9.558,0,0,1,0,19.116C17840.123,8427.557,17831.9,8418,17831.9,8418Zm-24.945,0a9.558,9.558,0,0,1,9.559-9.558c5.277,0,13.5,9.558,13.5,9.558s-8.219,9.559-13.5,9.559A9.556,9.556,0,0,1,17806.959,8418Zm14.441-14.437a9.559,9.559,0,1,1,19.117,0c0,5.274-9.559,13.492-9.559,13.492S17821.4,8408.835,17821.4,8403.561Z" stroke="none"/>
      <path d="M 17830.958984375 8437.9990234375 C 17834.0234375 8437.9990234375 17836.517578125 8435.505859375 17836.517578125 8432.4404296875 C 17836.517578125 8432.3681640625 17836.474609375 8430.62109375 17832.79296875 8426.4228515625 C 17832.16796875 8425.7109375 17831.5390625 8425.0439453125 17830.958984375 8424.4541015625 C 17830.396484375 8425.0244140625 17829.7890625 8425.6689453125 17829.181640625 8426.3583984375 C 17825.443359375 8430.6025390625 17825.400390625 8432.3671875 17825.400390625 8432.4404296875 C 17825.400390625 8435.505859375 17827.89453125 8437.9990234375 17830.958984375 8437.9990234375 M 17845.40234375 8423.556640625 C 17848.466796875 8423.556640625 17850.958984375 8421.0634765625 17850.958984375 8417.998046875 C 17850.958984375 8414.93359375 17848.466796875 8412.4404296875 17845.40234375 8412.4404296875 C 17845.330078125 8412.4404296875 17843.58203125 8412.482421875 17839.380859375 8416.166015625 C 17838.66796875 8416.7890625 17838.001953125 8417.41796875 17837.412109375 8417.998046875 C 17838.001953125 8418.578125 17838.66796875 8419.20703125 17839.380859375 8419.8310546875 C 17843.58203125 8423.5146484375 17845.330078125 8423.556640625 17845.40234375 8423.556640625 M 17816.517578125 8423.556640625 C 17816.58984375 8423.556640625 17818.3359375 8423.5146484375 17822.537109375 8419.8310546875 C 17823.25 8419.20703125 17823.916015625 8418.578125 17824.505859375 8417.998046875 C 17823.935546875 8417.4365234375 17823.291015625 8416.8291015625 17822.6015625 8416.2216796875 C 17818.35546875 8412.4833984375 17816.58984375 8412.4404296875 17816.517578125 8412.4404296875 C 17813.453125 8412.4404296875 17810.958984375 8414.93359375 17810.958984375 8417.998046875 C 17810.958984375 8421.0634765625 17813.453125 8423.556640625 17816.517578125 8423.556640625 M 17830.958984375 8411.544921875 C 17831.5390625 8410.955078125 17832.16796875 8410.2890625 17832.79296875 8409.5771484375 C 17836.474609375 8405.376953125 17836.517578125 8403.6328125 17836.517578125 8403.560546875 C 17836.517578125 8400.4931640625 17834.0234375 8397.998046875 17830.958984375 8397.998046875 C 17827.89453125 8397.998046875 17825.400390625 8400.4931640625 17825.400390625 8403.560546875 C 17825.400390625 8403.6328125 17825.443359375 8405.376953125 17829.125 8409.5771484375 C 17829.75 8410.2890625 17830.37890625 8410.955078125 17830.958984375 8411.544921875 M 17830.958984375 8441.9990234375 C 17825.6796875 8441.9990234375 17821.400390625 8437.7197265625 17821.400390625 8432.4404296875 C 17821.400390625 8427.162109375 17830.958984375 8418.9482421875 17830.958984375 8418.9482421875 C 17830.958984375 8418.9482421875 17840.517578125 8427.162109375 17840.517578125 8432.4404296875 C 17840.517578125 8437.7197265625 17836.23828125 8441.9990234375 17830.958984375 8441.9990234375 Z M 17845.40234375 8427.556640625 C 17840.123046875 8427.556640625 17831.904296875 8417.998046875 17831.904296875 8417.998046875 C 17831.904296875 8417.998046875 17840.123046875 8408.4404296875 17845.40234375 8408.4404296875 C 17850.6796875 8408.4404296875 17854.958984375 8412.7197265625 17854.958984375 8417.998046875 C 17854.958984375 8423.27734375 17850.6796875 8427.556640625 17845.40234375 8427.556640625 Z M 17816.517578125 8427.556640625 C 17811.23828125 8427.556640625 17806.958984375 8423.28125 17806.958984375 8417.998046875 C 17806.958984375 8412.7197265625 17811.23828125 8408.4404296875 17816.517578125 8408.4404296875 C 17821.794921875 8408.4404296875 17830.013671875 8417.998046875 17830.013671875 8417.998046875 C 17830.013671875 8417.998046875 17821.794921875 8427.556640625 17816.517578125 8427.556640625 Z M 17830.958984375 8417.052734375 C 17830.958984375 8417.052734375 17821.400390625 8408.8349609375 17821.400390625 8403.560546875 C 17821.400390625 8398.27734375 17825.6796875 8393.998046875 17830.958984375 8393.998046875 C 17836.23828125 8393.998046875 17840.517578125 8398.27734375 17840.517578125 8403.560546875 C 17840.517578125 8408.8349609375 17830.958984375 8417.052734375 17830.958984375 8417.052734375 Z" stroke="none" fill="#ed64a6"/>
    </g>
    <path id="パス_195" data-name="パス 195" d="M17.395,41.865a20.034,20.034,0,0,1-15.752,5.5" transform="translate(-1 -1)" fill="none" stroke="#ed64a6" stroke-linecap="round" stroke-width="4"/>
  </g>
</svg>
